<svg xmlns="http://www.w3.org/2000/svg" width="10.464" height="17.623" viewBox="0 0 10.464 17.623"><defs><style>.a{fill:#4e4e4e;}</style></defs><path class="a" d="M11.032,21.79a1.74,1.74,0,0,1,1.239-.378,8.213,8.213,0,0,1,1.875.223l.538-2.514a11.456,11.456,0,0,0-3.4-.435,6.373,6.373,0,0,0-2.839.527,3.008,3.008,0,0,0-1.521,1.375,5.663,5.663,0,0,0-.426,2.531v.991H4.22v2.881H6.495v9.043a15.73,15.73,0,0,0,2.977.275,7.249,7.249,0,0,0,1.167-.063V26.991h3.016V24.11H10.639v-.928A1.77,1.77,0,0,1,11.032,21.79Z" transform="translate(-4.22 -18.686)"/></svg>