<svg xmlns="http://www.w3.org/2000/svg" width="14.856" height="14.824" viewBox="0 0 14.856 14.824"><defs><style>.a{fill:#4e4e4e;fill-rule:evenodd;}</style></defs><g transform="translate(0)"><path class="a" d="M31.739,18.549H20.817a1.758,1.758,0,0,0-1.967,1.987v10.9a1.74,1.74,0,0,0,1.908,1.941H31.739a1.766,1.766,0,0,0,1.967-1.96V20.49A1.755,1.755,0,0,0,31.739,18.549Zm-1.2,1.672c1.469,0,1.469,0,1.469,1.469,0,1.442,0,1.442-1.442,1.442-1.462,0-1.462,0-1.462-1.462S29.1,20.221,30.54,20.221Zm-4.255,2.858a2.875,2.875,0,1,1-2.891,2.845A2.935,2.935,0,0,1,26.285,23.079ZM32.008,30.8c-.013.688-.19.892-.879.892H21.42c-.675,0-.872-.2-.872-.892,0-1.777.007-3.6-.026-5.4,0-.511.144-.629.616-.61.682.046.695.02.616.675a4.547,4.547,0,0,0,8.884,1.783,4.523,4.523,0,0,0,.1-2.131c-.052-.256.013-.308.243-.308,1.023-.079,1.023-.1,1.023.964Z" transform="translate(-18.85 -18.549)"/></g></svg>