<svg xmlns="http://www.w3.org/2000/svg" width="17.507" height="14.349" viewBox="0 0 17.507 14.349"><defs><style>.a{fill:#4e4e4e;fill-rule:evenodd;}</style></defs><path class="a" d="M13.648,31.365a7.818,7.818,0,0,0,3.77-.656,6.594,6.594,0,0,0,1.508-.9,3.637,3.637,0,0,1-1.56-.393A3.548,3.548,0,0,1,15.641,27.5c-.079-.19-.079-.19.138-.177a3.024,3.024,0,0,0,1.324-.092,3.449,3.449,0,0,1-.852-.334A3.619,3.619,0,0,1,14.3,23.826c-.013-.164.033-.184.177-.111a3.66,3.66,0,0,0,1.416.393c-.229-.216-.426-.38-.61-.557a3.719,3.719,0,0,1-.57-4.1c.092-.17.125-.17.249-.033a10.2,10.2,0,0,0,6.3,3.514c.256.052.538.059.8.1.177.033.2-.046.17-.19A3.612,3.612,0,0,1,28.275,19.6a.385.385,0,0,0,.4.1,6.723,6.723,0,0,0,1.9-.747.4.4,0,0,0,.157-.092,3.574,3.574,0,0,1-1.521,1.987,7.055,7.055,0,0,0,1.941-.511c.013.092-.052.144-.085.216a7.529,7.529,0,0,1-1.5,1.528.318.318,0,0,0-.131.3,10.5,10.5,0,0,1-2.491,7.048,9.786,9.786,0,0,1-6.032,3.39,10.311,10.311,0,0,1-7.186-1.4Z" transform="translate(-13.648 -18.598)"/></svg>