<svg xmlns="http://www.w3.org/2000/svg" width="16.743" height="16.83" viewBox="0 0 16.743 16.83"><defs><style>.a{fill:#4e4e4e;fill-rule:evenodd;}</style></defs><path class="a" d="M25.226,24.831a8.37,8.37,0,0,0-8.149-6.451,11.809,11.809,0,0,0-1.6.164A8.343,8.343,0,0,0,9.759,30.719a.544.544,0,0,1,.072.413c-.387,1.278-.747,2.59-1.095,3.881-.052.223-.052.223.157.164,1.357-.367,2.695-.708,4.052-1.049a.353.353,0,0,1,.3.02,8.358,8.358,0,0,0,11.985-9.316ZM18.25,33.577a3.541,3.541,0,0,1-.964.085,7.26,7.26,0,0,1-3.77-.964.448.448,0,0,0-.426-.072c-.754.184-1.488.387-2.236.584-.157.039-.17.02-.138-.144.2-.682.387-1.39.6-2.1a.541.541,0,0,0-.085-.5,6.9,6.9,0,0,1,.243-7.782,6.622,6.622,0,0,1,7.068-2.721,6.551,6.551,0,0,1,5.3,5.271A6.883,6.883,0,0,1,18.25,33.577Z" transform="translate(-8.708 -18.38)"/><path class="a" d="M15.746,26.931a2.18,2.18,0,0,1-.865-.118,8.448,8.448,0,0,1-4.517-3.324,4.713,4.713,0,0,1-.97-1.96,2.281,2.281,0,0,1,.747-2.236,1.3,1.3,0,0,1,1.115-.17,1.186,1.186,0,0,1,.19.223c.236.6.485,1.147.728,1.711a.478.478,0,0,1-.033.354,3.324,3.324,0,0,1-.518.688.32.32,0,0,0-.046.466,5.6,5.6,0,0,0,2.852,2.445.325.325,0,0,0,.426-.1c.216-.249.426-.518.623-.78a.363.363,0,0,1,.465-.118c.413.19.813.38,1.206.557a1.536,1.536,0,0,0,.282.131c.413.21.413.236.361.675A1.74,1.74,0,0,1,16.3,26.911,1.464,1.464,0,0,1,15.746,26.931Z" transform="translate(-5.194 -14.592)"/></svg>